<svg width="30" height="30" viewBox="0 0 30 30" fill="none" xmlns="http://www.w3.org/2000/svg">
<path d="M11.8462 11.3556C12.0266 11.5245 12.1889 11.7126 12.3527 11.9016C12.4027 11.9585 12.4528 12.0153 12.5029 12.072C12.6384 12.2256 12.7731 12.38 12.9078 12.5345C13.0488 12.6961 13.1905 12.8569 13.3321 13.0178C13.5998 13.3224 13.8671 13.6276 14.1341 13.9331C14.4382 14.2809 14.7429 14.628 15.0477 14.975C15.6745 15.6887 16.3004 16.4033 16.9259 17.1184C17.0868 17.0415 17.1886 16.9324 17.3109 16.7922C17.3312 16.7691 17.3515 16.746 17.3724 16.7222C17.4402 16.6448 17.5077 16.5671 17.5752 16.4894C17.6238 16.4338 17.6724 16.3782 17.721 16.3227C17.8257 16.2031 17.9303 16.0834 18.0348 15.9635C18.2001 15.7739 18.3658 15.5847 18.5316 15.3956C19.003 14.8579 19.474 14.3197 19.9444 13.7807C20.2041 13.483 20.4643 13.1858 20.7249 12.8891C20.8897 12.7014 21.054 12.5131 21.218 12.3244C21.3203 12.207 21.4231 12.09 21.526 11.9732C21.5735 11.9191 21.6208 11.8648 21.6679 11.8103C21.9582 11.4743 22.1918 11.2194 22.6238 11.1864C22.9466 11.2043 23.1798 11.3396 23.3979 11.6085C23.5778 11.8786 23.6327 12.1754 23.5956 12.5081C23.5288 12.7983 23.4143 13.001 23.2254 13.2108C23.2015 13.2384 23.1775 13.2661 23.1528 13.2945C23.0729 13.3862 22.9923 13.477 22.9117 13.5678C22.8541 13.6336 22.7964 13.6995 22.7389 13.7654C22.5828 13.9439 22.426 14.1215 22.269 14.299C22.1378 14.4475 22.007 14.5963 21.8762 14.7451C21.5675 15.0964 21.2582 15.447 20.9486 15.7972C20.6295 16.158 20.3114 16.5198 19.9938 16.8821C19.7206 17.1936 19.4469 17.5045 19.1728 17.8149C19.0092 18.0001 18.8459 18.1855 18.683 18.3715C18.5298 18.5464 18.3759 18.7206 18.2215 18.8942C18.1652 18.9578 18.109 19.0218 18.0531 19.0859C17.4233 19.8082 17.4233 19.8082 16.9832 19.8305C16.4455 19.8159 16.0877 19.2965 15.7342 18.8945C15.677 18.8299 15.6197 18.7653 15.5624 18.7008C15.4075 18.5262 15.253 18.3511 15.0987 18.1759C14.9696 18.0294 14.8403 17.8832 14.711 17.7369C14.406 17.3919 14.1014 17.0465 13.797 16.7008C13.4833 16.3445 13.1689 15.9889 12.8542 15.6338C12.5836 15.3283 12.3135 15.0224 12.0437 14.7161C11.8827 14.5334 11.7215 14.3509 11.56 14.1688C11.4081 13.9976 11.2568 13.8258 11.1059 13.6536C11.0505 13.5906 10.9949 13.5278 10.9391 13.4653C10.8629 13.3796 10.7873 13.2933 10.7119 13.2067C10.6898 13.1823 10.6677 13.1579 10.645 13.1327C10.4438 12.8986 10.3441 12.6322 10.3279 12.3077C10.3437 11.9415 10.4629 11.677 10.6999 11.4296C11.042 11.1361 11.4741 11.1177 11.8462 11.3556Z" fill="#EEEEEE"/>
</svg>
