<svg width="74" height="74" viewBox="0 0 74 74" fill="none" xmlns="http://www.w3.org/2000/svg">
<g clip-path="url(#clip0_207_10)">
<path d="M39.0415 0.234856C39.33 0.396324 39.33 0.396324 39.6015 0.578117C39.7016 0.64109 39.8016 0.704063 39.9047 0.768944C41.145 1.61745 41.7562 2.68589 42.1579 4.1101C42.3428 5.62649 42.0833 7.09564 41.1823 8.36474C40.4151 9.26292 39.4556 9.8862 38.3007 10.1172C38.3007 13.5035 38.3007 16.8899 38.3007 20.3789C39.9379 20.3722 41.575 20.3655 43.2617 20.3586C44.3004 20.3556 45.3391 20.3528 46.3778 20.3507C48.0256 20.3472 49.6734 20.3432 51.3212 20.3353C52.5214 20.3295 53.7217 20.3258 54.9219 20.3245C55.5569 20.3238 56.1918 20.322 56.8267 20.3178C57.4256 20.3138 58.0246 20.3126 58.6235 20.3135C58.8421 20.3133 59.0606 20.3122 59.2791 20.31C61.6368 20.2871 63.7713 20.8708 65.5268 22.5198C66.7752 23.864 67.6614 25.6721 67.657 27.5235C67.657 27.6768 67.657 27.8301 67.657 27.9881C67.6562 28.1519 67.6555 28.3157 67.6547 28.4845C67.6544 28.738 67.6544 28.738 67.6541 28.9966C67.6533 29.5356 67.6515 30.0746 67.6496 30.6135C67.6489 30.9793 67.6482 31.345 67.6477 31.7108C67.6461 32.6067 67.6436 33.5025 67.6406 34.3984C67.7381 34.3946 67.8356 34.3909 67.9361 34.387C68.3856 34.3718 68.835 34.3625 69.2846 34.3533C69.5146 34.3442 69.5146 34.3442 69.7493 34.3349C71.0491 34.315 71.9755 34.6301 72.9702 35.4734C73.6893 36.3405 74.0155 36.9471 74.0278 38.073C74.029 38.1666 74.0302 38.2602 74.0314 38.3566C74.035 38.6664 74.0374 38.9762 74.0395 39.286C74.0403 39.3922 74.041 39.4984 74.0418 39.6079C74.0457 40.1709 74.0485 40.7339 74.0506 41.2969C74.0525 41.7608 74.0565 42.2246 74.0624 42.6884C74.0696 43.2503 74.0731 43.812 74.0742 44.3739C74.0751 44.5869 74.0773 44.8 74.0808 45.013C74.1029 46.4463 73.9904 47.6173 73.0024 48.7267C72.1506 49.5863 71.0657 49.8837 69.8707 49.9056C69.603 49.9028 69.3354 49.8977 69.0678 49.8904C68.9296 49.8884 68.7914 49.8865 68.6489 49.8844C68.3127 49.8794 67.9767 49.8723 67.6406 49.8633C67.6419 49.9551 67.6432 50.0469 67.6445 50.1414C67.6574 51.1052 67.666 52.069 67.6723 53.0328C67.6752 53.3915 67.6792 53.7502 67.6842 54.1089C67.6913 54.6274 67.6945 55.1458 67.6971 55.6643C67.7 55.8221 67.703 55.98 67.7061 56.1426C67.7067 58.1982 66.9784 60.088 65.5884 61.611C63.9049 63.2178 61.9127 63.9069 59.6098 63.9018C59.4871 63.9021 59.3645 63.9024 59.2381 63.9027C58.828 63.9036 58.4179 63.9034 58.0079 63.9033C57.7135 63.9037 57.419 63.9043 57.1246 63.9048C56.491 63.906 55.8574 63.9067 55.2238 63.9072C54.2217 63.908 53.2196 63.9104 52.2174 63.9132C51.8742 63.9141 51.5309 63.915 51.1876 63.9159C50.9298 63.9166 50.9298 63.9166 50.6668 63.9173C48.3341 63.9234 46.0015 63.9281 43.6688 63.9299C42.0947 63.9311 40.5206 63.9344 38.9464 63.9399C38.1137 63.9428 37.281 63.9446 36.4483 63.9439C35.6651 63.9432 34.8819 63.9452 34.0987 63.9492C33.8116 63.9502 33.5245 63.9502 33.2374 63.9492C32.8447 63.9479 32.4523 63.9502 32.0596 63.9533C31.9466 63.9521 31.8336 63.9509 31.7172 63.9496C30.6628 63.9651 29.8813 64.4074 29.0234 64.9916C28.866 65.0981 28.866 65.0981 28.7054 65.2066C28.5947 65.2825 28.4839 65.3584 28.3699 65.4365C28.2499 65.5179 28.13 65.5992 28.0064 65.683C27.748 65.8583 27.4898 66.0339 27.2318 66.2098C26.8233 66.4879 26.4141 66.765 26.0047 67.0417C24.851 67.8217 23.698 68.6028 22.5476 69.3877C21.8531 69.8616 21.1571 70.3334 20.4603 70.8039C20.1966 70.9825 19.9334 71.162 19.6708 71.3423C19.3038 71.5941 18.9352 71.8432 18.566 72.0917C18.4589 72.1662 18.3518 72.2407 18.2415 72.3174C17.5449 72.7811 17.0286 72.9642 16.1875 72.9883C15.7135 72.8028 15.5261 72.6808 15.3034 72.2224C15.1723 71.8216 15.1395 71.5159 15.1388 71.0958C15.1378 70.953 15.1368 70.8103 15.1358 70.6632C15.1359 70.5107 15.1361 70.3581 15.1362 70.201C15.1333 69.8766 15.1303 69.5523 15.1272 69.2279C15.1239 68.7176 15.1215 68.2073 15.1207 67.6969C15.1193 67.2037 15.1145 66.7105 15.1091 66.2173C15.1102 65.9881 15.1102 65.9881 15.1113 65.7542C15.1122 64.9399 15.1122 64.9399 14.7733 64.2226C14.4475 64.0239 14.2541 63.9468 13.8772 63.9167C13.767 63.905 13.6567 63.8933 13.5431 63.8812C13.4261 63.8698 13.309 63.8584 13.1884 63.8467C11.1185 63.5835 9.26645 62.6865 7.94015 61.0464C6.73281 59.3567 6.31226 57.7768 6.33111 55.7349C6.33152 55.5665 6.33193 55.3981 6.33235 55.2246C6.33396 54.6901 6.33759 54.1556 6.34128 53.6211C6.34273 53.2573 6.34405 52.8935 6.34523 52.5298C6.34841 51.6409 6.35323 50.7521 6.35934 49.8633C6.27497 49.8655 6.19059 49.8678 6.10366 49.8702C5.71315 49.8793 5.32267 49.8848 4.9321 49.8904C4.73312 49.8958 4.73312 49.8958 4.53012 49.9014C3.31714 49.9142 2.10025 49.7548 1.17428 48.9058C1.0733 48.8174 0.972325 48.7291 0.868285 48.6381C-0.0787134 47.448 -0.0861836 46.1974 -0.0768139 44.7364C-0.0772042 44.5206 -0.0777659 44.3049 -0.0784899 44.0892C-0.079338 43.6391 -0.0781171 43.1891 -0.0754024 42.739C-0.0721059 42.1647 -0.0740083 41.5906 -0.0774667 41.0164C-0.0795646 40.5716 -0.0788858 40.1268 -0.0773917 39.6821C-0.0770086 39.4704 -0.0774701 39.2588 -0.0788252 39.0471C-0.0857188 37.6685 -0.0127259 36.694 0.903289 35.5998C1.77039 34.8707 2.53753 34.3782 3.69173 34.3843C3.84683 34.3848 4.00193 34.3852 4.16173 34.3857C4.32354 34.3869 4.48535 34.3881 4.65207 34.3894C4.8973 34.3904 4.8973 34.3904 5.14748 34.3914C5.55144 34.3931 5.95539 34.3955 6.35934 34.3984C6.35806 34.3066 6.35678 34.2148 6.35545 34.1203C6.34257 33.1565 6.3339 32.1927 6.32759 31.2289C6.3247 30.8702 6.32076 30.5115 6.31573 30.1528C6.30864 29.6343 6.30542 29.1159 6.30289 28.5974C6.2999 28.4396 6.29692 28.2817 6.29384 28.1191C6.29321 25.9116 7.1012 24.0515 8.59676 22.4543C9.99732 21.1427 11.761 20.36 13.678 20.3615C13.7725 20.3614 13.867 20.3613 13.9643 20.3611C14.2796 20.3609 14.595 20.3617 14.9103 20.3625C15.1368 20.3625 15.3633 20.3625 15.5898 20.3624C16.204 20.3624 16.8182 20.3632 17.4324 20.3642C18.0746 20.3651 18.7167 20.3652 19.3589 20.3654C20.5745 20.3659 21.7902 20.367 23.0059 20.3685C24.6488 20.3704 26.2918 20.3712 27.9348 20.372C30.5229 20.3734 33.111 20.3763 35.6992 20.3789C35.6992 16.9925 35.6992 13.6062 35.6992 10.1172C35.2699 9.97409 34.8407 9.83101 34.3984 9.68359C33.1623 8.9767 32.368 7.93035 31.9594 6.57616C31.6172 5.12217 31.7336 3.75327 32.4653 2.43896C33.8185 0.323792 36.6387 -0.784628 39.0415 0.234856Z" fill="#76ABAE"/>
<path d="M6.35935 34.3984C6.35935 39.5018 6.35935 44.6052 6.35935 49.8633C2.2185 49.8633 2.2185 49.8633 1.17429 48.9058C1.07331 48.8174 0.972327 48.7291 0.868287 48.6382C-0.0787112 47.448 -0.0861814 46.1974 -0.0768117 44.7364C-0.077202 44.5207 -0.0777637 44.3049 -0.0784877 44.0892C-0.0793358 43.6391 -0.0781149 43.1891 -0.0754002 42.739C-0.0721037 42.1647 -0.0740072 41.5906 -0.0774656 41.0164C-0.0795635 40.5716 -0.0788858 40.1268 -0.0773917 39.6821C-0.0770086 39.4704 -0.0774701 39.2588 -0.0788252 39.0472C-0.0857188 37.6685 -0.0127237 36.694 0.903291 35.5999C2.73194 34.0621 3.54783 34.3984 6.35935 34.3984Z" fill="#31363F"/>
<path d="M67.6406 34.3984C71.7023 34.3984 71.7023 34.3984 72.9702 35.4734C73.6893 36.3405 74.0155 36.9471 74.0279 38.073C74.0296 38.2134 74.0296 38.2134 74.0315 38.3566C74.035 38.6664 74.0374 38.9762 74.0395 39.286C74.0403 39.3922 74.0411 39.4984 74.0419 39.6079C74.0457 40.1709 74.0485 40.7339 74.0506 41.2969C74.0525 41.7608 74.0565 42.2246 74.0625 42.6884C74.0696 43.2503 74.0732 43.812 74.0742 44.3739C74.0752 44.587 74.0773 44.8 74.0808 45.013C74.1029 46.4463 73.9905 47.6173 73.0024 48.7267C72.261 49.4749 71.8082 49.5236 70.6758 49.8633C69.6742 49.8633 68.6726 49.8633 67.6406 49.8633C67.6406 44.7599 67.6406 39.6565 67.6406 34.3984Z" fill="#31363F"/>
<path d="M39.0415 0.234856C39.33 0.396325 39.33 0.396325 39.6016 0.578118C39.7016 0.641091 39.8017 0.704064 39.9047 0.768945C41.145 1.61745 41.7563 2.68589 42.158 4.1101C42.3429 5.62649 42.0833 7.09565 41.1824 8.36474C40.4845 9.18518 39.3776 10.0482 38.2717 10.1451C35.0689 10.2461 35.0689 10.2461 33.9648 9.39452C33.8098 9.28721 33.6548 9.1799 33.4951 9.06933C32.3912 7.96544 31.7983 6.68485 31.7517 5.11279C31.8211 3.54938 32.3448 2.2507 33.5132 1.17431C34.9871 -0.0251666 37.2356 -0.531362 39.0415 0.234856Z" fill="#76ABAE"/>
<path d="M54.6057 33.6306C55.1801 33.9696 55.6555 34.31 56.0781 34.832C56.1504 34.9183 56.2227 35.0046 56.2972 35.0934C57.3574 36.4135 57.5607 37.618 57.3789 39.3125C57.0152 40.7013 56.2779 41.8077 55.0845 42.6096C53.7199 43.3805 52.3161 43.6031 50.7638 43.2747C49.4455 42.8221 48.3889 41.8018 47.6863 40.6161C47.0989 39.3507 46.9944 37.8164 47.4305 36.4845C47.6392 36.0559 47.8651 35.6624 48.1289 35.2656C48.1843 35.1771 48.2396 35.0886 48.2966 34.9974C49.653 33.1063 52.6013 32.6608 54.6057 33.6306Z" fill="#EEEEEE"/>
<path d="M21.6346 33.1609C21.8052 33.1613 21.8052 33.1613 21.9794 33.1616C23.0413 33.194 23.8335 33.5147 24.7149 34.1094C24.8032 34.1647 24.8915 34.22 24.9825 34.2771C25.8266 34.8809 26.4305 36.0243 26.7383 37C26.8974 38.8257 26.7667 40.2254 25.555 41.6702C24.4239 42.8533 23.1844 43.3594 21.5533 43.4136C19.9295 43.3861 18.7845 42.6485 17.669 41.5076C16.7036 40.1399 16.5034 38.7866 16.6211 37.1445C16.9552 35.7129 17.7948 34.651 19.0144 33.8672C19.9086 33.3821 20.6278 33.1578 21.6346 33.1609Z" fill="#EEEEEE"/>
<path d="M30.5412 47.1533C31.1956 47.2864 31.4452 47.5427 31.9194 47.9923C33.5783 49.4917 35.5473 49.6829 37.6916 49.6245C39.3349 49.5408 40.9906 49.1247 42.1444 47.8805C42.2144 47.8015 42.2845 47.7225 42.3567 47.6411C42.8549 47.1959 42.8549 47.1959 43.3684 47.1624C43.9375 47.2617 43.9375 47.2617 44.3711 47.5688C44.6601 47.9844 44.6601 47.9844 44.7414 48.4089C44.5506 49.4476 43.7533 50.1408 42.9257 50.7305C40.1733 52.3369 37.0714 52.7355 33.9648 52.0312C32.3097 51.5763 30.3475 50.6916 29.4623 49.1372C29.2828 48.7187 29.2754 48.4352 29.3398 47.9844C29.7046 47.4759 29.9287 47.292 30.5412 47.1533Z" fill="#EEEEEE"/>
<path d="M35.6992 10.1172C36.5577 10.1172 37.4162 10.1172 38.3008 10.1172C38.3008 13.5036 38.3008 16.8899 38.3008 20.3789C37.4423 20.3789 36.5838 20.3789 35.6992 20.3789C35.6992 16.9925 35.6992 13.6062 35.6992 10.1172Z" fill="#EEEEEE"/>
</g>
<defs>
<clipPath id="clip0_207_10">
<rect width="74" height="74" fill="white"/>
</clipPath>
</defs>
</svg>
