<svg width="18" height="24" viewBox="0 0 18 24" fill="none" xmlns="http://www.w3.org/2000/svg">
<path d="M17.3791 13.3406C17.5657 13.2159 17.7226 13.0244 17.8323 12.7876C17.9419 12.5507 18 12.2779 18 11.9996C18 11.7212 17.9419 11.4484 17.8323 11.2116C17.7226 10.9747 17.5657 10.7833 17.3791 10.6586L1.62847 0.158552C1.43317 0.0282676 1.21366 -0.0234212 0.996709 0.00979079C0.779758 0.0430028 0.574746 0.15968 0.406682 0.345589C0.238618 0.531498 0.114769 0.778603 0.0502399 1.05676C-0.0142892 1.33491 -0.0167073 1.6321 0.0432809 1.91205L1.65096 9.41206C1.71821 9.72552 1.86023 10.0012 2.05551 10.1975C2.2508 10.3937 2.48872 10.4997 2.73326 10.4996L7.87582 10.4996C8.1742 10.4996 8.46036 10.6576 8.67135 10.9389C8.88233 11.2202 9.00086 11.6017 9.00086 11.9996C9.00086 12.3974 8.88233 12.7789 8.67135 13.0602C8.46036 13.3415 8.1742 13.4996 7.87582 13.4996L2.73326 13.4996C2.48872 13.4994 2.2508 13.6054 2.05551 13.8017C1.86023 13.9979 1.71821 14.2736 1.65096 14.5871L0.0444046 22.0871C-0.0157025 22.3669 -0.013429 22.6641 0.0509473 22.9423C0.115324 23.2204 0.239021 23.4676 0.406954 23.6537C0.574887 23.8397 0.779796 23.9566 0.996695 23.9901C1.21359 24.0235 1.43311 23.9721 1.62846 23.8421L17.3791 13.3421L17.3791 13.3406Z" fill="white"/>
</svg>
