<svg width="27" height="27" viewBox="0 0 27 27" fill="none" xmlns="http://www.w3.org/2000/svg">
<path d="M3.375 27C2.44688 27 1.65206 26.748 0.990565 26.244C0.329065 25.74 -0.00112213 25.1349 2.86503e-06 24.4286V11.5714C2.86503e-06 10.8643 0.330752 10.2587 0.992252 9.75471C1.65375 9.25071 2.448 8.99914 3.375 9H5.0625V6.42857C5.0625 4.65 5.88544 3.13371 7.53131 1.87971C9.17719 0.625715 11.1667 -0.000856265 13.5 8.7822e-07C15.8344 8.7822e-07 17.8245 0.627001 19.4704 1.881C21.1162 3.135 21.9386 4.65086 21.9375 6.42857V9H23.625C24.5531 9 25.3479 9.252 26.0094 9.756C26.6709 10.26 27.0011 10.8651 27 11.5714V24.4286C27 25.1357 26.6692 25.7413 26.0077 26.2453C25.3462 26.7493 24.552 27.0009 23.625 27H3.375ZM13.5 20.5714C14.4281 20.5714 15.2229 20.3194 15.8844 19.8154C16.5459 19.3114 16.8761 18.7063 16.875 18C16.875 17.2929 16.5442 16.6873 15.8827 16.1833C15.2212 15.6793 14.427 15.4277 13.5 15.4286C12.5719 15.4286 11.7771 15.6806 11.1156 16.1846C10.4541 16.6886 10.1239 17.2937 10.125 18C10.125 18.7071 10.4558 19.3127 11.1173 19.8167C11.7788 20.3207 12.573 20.5723 13.5 20.5714ZM8.4375 9H18.5625V6.42857C18.5625 5.35714 18.0703 4.44643 17.0859 3.69643C16.1016 2.94643 14.9062 2.57143 13.5 2.57143C12.0938 2.57143 10.8984 2.94643 9.91406 3.69643C8.92969 4.44643 8.4375 5.35714 8.4375 6.42857V9Z" fill="#76ABAE"/>
</svg>
